<?xml version="1.0" encoding="UTF-8"?>
<svg width="38px" height="52px" viewBox="0 0 38 52" version="1.1" xmlns="http://www.w3.org/2000/svg" xmlns:xlink="http://www.w3.org/1999/xlink">
    <!-- Generator: Sketch 48.2 (47327) - http://www.bohemiancoding.com/sketch -->
    <title>Shape</title>
    <desc>Created with Sketch.</desc>
    <defs></defs>
    <g id="HOME" stroke="none" stroke-width="1" fill="none" fill-rule="evenodd" transform="translate(-138.000000, -1989.000000)">
        <path d="M174.486165,2021.73876 C174.370952,2022.25933 173.910098,2022.60638 173.391638,2022.60638 C173.334031,2022.60638 173.218818,2022.60638 173.161211,2022.60638 C172.527537,2022.4907 172.181897,2021.85444 172.29711,2021.27602 C174.889412,2010.28613 174.025312,2002.13046 169.762415,1996.98256 C164.865844,1991.08272 157.146545,1991.25625 157.088938,1991.25625 C156.455264,1991.25625 155.936804,1990.79352 155.936804,1990.15726 C155.936804,1989.521 156.397658,1989.00043 157.031332,1989.00043 C157.376972,1989.00043 165.902765,1988.8269 171.490616,1995.47868 C176.214367,2001.205 177.251287,2010.05476 174.486165,2021.73876 Z M148.505538,2017.28496 C147.007764,2018.55747 145.798023,2019.82998 144.933922,2021.21818 C143.666574,2023.1848 142.86008,2025.09357 142.572047,2026.9445 C142.51444,2027.17586 141.477519,2034.40606 145.740416,2037.00893 C145.913236,2037.12461 146.143663,2037.18246 146.316483,2037.18246 L168.495067,2037.18246 C169.128741,2037.18246 169.647201,2036.66188 169.647201,2036.08347 C169.647201,2035.44721 169.128741,2034.98448 168.495067,2034.98448 L146.662123,2034.98448 C144.415462,2033.30707 144.530675,2028.85327 144.761102,2027.23371 C144.991529,2025.72982 145.682809,2024.11026 146.777337,2022.43286 C147.526224,2021.27602 148.563145,2020.11919 149.945706,2019.0202 C152.077154,2017.22711 154.439029,2014.33504 154.554243,2014.21935 C154.61185,2014.16151 154.61185,2014.10367 154.669456,2014.04583 C156.109624,2011.55864 156.282444,2009.76555 156.109624,2008.66656 C156.916118,2008.26167 157.434578,2007.85678 157.492185,2007.79894 C160.602948,2005.42743 159.969274,2002.18831 159.16278,2000.85795 C158.874746,2000.33737 158.183466,2000.10601 157.665005,2000.45306 C157.146545,2000.74227 156.916118,2001.43636 157.204152,2001.95694 C157.319365,2002.18831 158.356286,2004.32844 156.052017,2006.12153 C156.052017,2006.12153 155.418344,2006.58426 154.554243,2006.98916 C154.439029,2006.98916 154.323816,2007.047 154.208603,2007.10484 C154.208603,2007.10484 154.208603,2007.10484 154.208603,2007.10484 C153.574929,2007.27836 152.883648,2007.39405 152.134761,2007.27836 C151.846727,2007.16268 151.155447,2006.93131 150.57938,2006.75779 C150.233739,2006.64211 149.888099,2006.69995 149.657672,2006.87347 L144.185035,2010.51749 C144.185035,2010.51749 144.185035,2010.51749 144.127428,2010.51749 C143.954608,2010.57533 143.436147,2010.51749 142.51444,2009.76555 C141.99598,2009.36066 141.535126,2008.84009 141.131879,2008.20383 L140.267778,2006.93131 C140.210172,2006.75779 140.210172,2006.52642 140.498205,2006.23722 C140.728632,2006.00585 146.71973,2000.62658 148.966392,1996.7512 C149.139212,1996.46199 149.139212,1996.11494 149.023999,1995.82573 C148.793572,1995.24732 148.447931,1994.09049 148.159898,1992.93365 C149.196819,1993.51207 150.636986,1994.20617 152.422795,1994.72674 C152.653221,1994.78458 153.517322,1995.13163 154.61185,1995.24732 C154.727063,1995.24732 154.78467,1995.24732 154.899883,1995.24732 C154.899883,1995.24732 157.204152,1994.95811 159.50842,1995.59437 C159.566027,1995.59437 159.623634,1995.59437 159.68124,1995.65221 C159.85406,1995.65221 163.656103,1996.23062 166.766866,2000.85795 C166.766866,2000.85795 166.824473,2000.91579 166.824473,2000.91579 C166.824473,2000.97363 169.474381,2004.44413 169.071134,2010.34397 C169.071134,2010.45965 168.26464,2020.98682 165.960372,2026.19256 C165.729945,2026.77097 165.960372,2027.40723 166.536439,2027.6386 C166.709259,2027.69644 166.824473,2027.75428 166.997293,2027.75428 C167.458146,2027.75428 167.861393,2027.52291 168.034214,2027.06018 C170.511302,2021.44955 171.317796,2010.92238 171.317796,2010.45965 C171.77865,2003.98139 168.955921,1999.99033 168.667887,1999.58543 C165.211485,1994.49538 160.833375,1993.56991 160.084487,1993.45423 C157.665005,1992.81797 155.360737,1992.9915 154.78467,1993.04934 C153.862962,1992.93365 153.229289,1992.70229 153.229289,1992.70229 C153.171682,1992.70229 153.171682,1992.70229 153.114075,1992.64445 C149.715279,1991.66114 147.641437,1989.92589 147.583831,1989.92589 C147.23819,1989.63668 146.834943,1989.57884 146.431696,1989.75237 C146.028449,1989.81021 145.798023,1990.15726 145.740416,1990.56215 C145.567596,1992.35524 146.37409,1994.95811 146.777337,1996.11494 C144.473068,1999.64328 139.058037,2004.61765 139.000431,2004.67549 C137.61787,2005.94801 137.96351,2007.45189 138.30915,2008.08815 C138.30915,2008.08815 138.366757,2008.14599 138.366757,2008.14599 L139.288464,2009.47634 C139.806925,2010.28613 140.440598,2010.92238 141.131879,2011.5008 C143.551361,2013.46741 145.106742,2012.65763 145.509989,2012.31058 L150.521773,2009.01361 C151.040233,2009.18714 151.558694,2009.36066 151.558694,2009.36066 C151.616301,2009.36066 151.673907,2009.4185 151.731514,2009.4185 C152.538008,2009.53418 153.286895,2009.53418 153.978176,2009.4185 C153.978176,2010.1126 153.747749,2011.26943 152.826042,2012.889 C152.365188,2013.29389 150.291346,2015.72323 148.505538,2017.28496 Z M171.663436,2038.80202 L143.551361,2038.80202 C142.917687,2038.80202 142.399227,2039.32259 142.399227,2039.90101 C142.399227,2040.53727 142.917687,2041 143.551361,2041 L171.721043,2041 C172.354717,2041 172.873177,2040.47943 172.873177,2039.90101 C172.815571,2039.32259 172.29711,2038.80202 171.663436,2038.80202 Z" id="Shape" fill="#FFFFFF" fill-rule="nonzero"></path>
    </g>
</svg>