<?xml version="1.0" encoding="UTF-8"?>
<svg width="49px" height="49px" viewBox="0 0 49 49" version="1.1" xmlns="http://www.w3.org/2000/svg" xmlns:xlink="http://www.w3.org/1999/xlink">
    <!-- Generator: Sketch 48.2 (47327) - http://www.bohemiancoding.com/sketch -->
    <title>Page 1</title>
    <desc>Created with Sketch.</desc>
    <defs></defs>
    <g id="HOME" stroke="none" stroke-width="1" fill="none" fill-rule="evenodd" transform="translate(-553.000000, -1986.000000)">
        <g id="Page-1" transform="translate(553.000000, 1986.000000)" fill="#FFFFFF">
            <path d="M3.07913144,44.2713561 L4.72870019,45.9203221 C4.25756143,46.3920383 3.5502702,46.3920383 3.07913144,45.9203221 C2.60799269,45.449772 2.60799269,44.7424892 3.07913144,44.2713561 Z M3.49196095,38.0871504 L10.9129795,45.5080806 L10.0884867,46.3325636 C9.59285802,46.8287695 8.86632474,46.7599654 8.43891792,46.3325636 L2.66688503,40.5605994 C2.2400613,40.1337808 2.17125639,39.406673 2.66688503,38.9116334 L3.49196095,38.0871504 Z M6.78993226,34.7880521 L14.2115339,42.2101485 L12.5625482,43.8591146 L5.14094661,36.4370182 L6.78993226,34.7880521 Z M38.5375709,36.8498428 C38.0827587,36.3944529 37.3439805,36.3944529 36.8885852,36.8498428 C36.4331899,37.3052326 36.4331899,38.043419 36.8885852,38.4993919 L40.1871396,41.797907 C40.6419518,42.2532969 41.38073,42.2532969 41.8361253,41.797907 C42.2921036,41.3425172 42.2921036,40.6037478 41.8361253,40.1483579 L38.5375709,36.8498428 Z M8.85174742,7.16378949 C8.39635216,6.70839965 7.65815703,6.70839965 7.20217867,7.16378949 C6.74678341,7.61976242 6.74678341,8.35794877 7.20217867,8.81333861 L10.5007331,12.1118538 C10.9561283,12.5672436 11.6943235,12.5672436 12.1503018,12.1118538 C12.605114,11.6558808 12.605114,10.9176945 12.1503018,10.4623046 L8.85174742,7.16378949 Z M31.3865242,15.7841268 C27.0395694,12.345088 20.6920242,12.6407124 16.6855955,16.6470934 C15.8844263,17.4476699 15.2441908,18.3368755 14.7398157,19.2884711 C14.3847124,19.8284084 14.5952088,20.6458944 15.1648902,20.950265 C15.7345716,21.2552188 16.5369069,20.9788362 16.7888028,20.3835059 C17.187055,19.6319085 17.7013426,18.9298735 18.3345811,18.2960595 C21.5147677,15.1159107 26.4967103,14.8838426 29.9305421,17.6004384 C30.3964331,17.9986858 31.1824418,17.9368787 31.5801109,17.4715764 C32.1346319,16.8902401 31.8634938,16.1969514 31.3865242,15.7841268 Z M33.5900308,15.4097858 C38.191797,20.0120803 39.0996721,28.042335 34.0670005,33.0749467 C30.6932271,36.4486799 27.5626034,37.1652921 24.377752,37.7133925 C21.5176832,38.2049337 18.5217538,38.5262138 15.9124148,40.612494 L8.38760577,33.0877746 C10.4733277,30.4784666 10.7951948,27.4825728 11.2867418,24.6225381 C11.8342657,21.4377246 12.5514695,18.3071381 15.9252428,14.9334049 C20.9579144,9.90079322 28.9882646,10.8086575 33.5900308,15.4097858 Z M35.2395995,13.7608198 C29.7841859,8.30605415 20.2786116,7.28157278 14.2762572,13.2838558 C10.4902374,17.0698305 9.55845556,20.9485158 8.99343891,24.2359523 C8.42842225,27.5233888 8.17769247,30.1023764 5.96543943,32.3146031 L1.01789938,37.2620843 C-0.382105772,38.6614897 -0.295808079,40.8964567 1.01789938,42.2101485 L1.43014579,42.62239 C0.073872581,43.9786471 0.073872581,46.2136142 1.43014579,47.5698712 C2.786419,48.9261283 5.02141264,48.9261283 6.37768585,47.5698712 L6.78993226,47.9821127 C8.10363972,49.2958046 10.3380503,49.3821012 11.7380554,47.9821127 L16.6850124,43.0346316 C18.8972654,40.8224048 21.4768667,40.571678 24.7637593,40.0066681 C28.051818,39.4416582 31.9305495,38.5093043 35.7159861,34.7239127 C41.7183406,28.7216297 40.693847,19.2155854 35.2395995,13.7608198 Z M48.6647218,23.6563652 C48.4542254,23.4452883 48.1626791,23.321091 47.840229,23.321091 L43.1760719,23.321091 C42.5323377,23.321091 42.0168839,23.8365387 42.0168839,24.4808483 C42.0168839,25.1251578 42.5323377,25.6406055 43.1760719,25.6406055 L47.840229,25.6406055 C48.4845462,25.6400224 49,25.1251578 49,24.4808483 C49,24.1584019 48.8763844,23.8674422 48.6647218,23.6563652 Z M25.3439363,0.335274211 C25.1328568,0.124197229 24.8413106,0 24.5194435,0 C23.8751263,0 23.3596725,0.515447657 23.3596725,1.15975723 L23.3596725,5.82385882 C23.3596725,6.46816839 23.8751263,6.98361604 24.5194435,6.98361604 C25.1637608,6.98361604 25.6786315,6.46816839 25.6786315,5.82385882 L25.6786315,1.15975723 C25.6786315,0.837893985 25.5544327,0.546351193 25.3439363,0.335274211 Z M41.8361253,7.16378949 C41.38073,6.70839965 40.6419518,6.70839965 40.1871396,7.16378949 L36.8885852,10.4623046 C36.4331899,10.9176945 36.4331899,11.6558808 36.8885852,12.1118538 C37.3439805,12.5672436 38.0827587,12.5672436 38.5375709,12.1118538 L41.8361253,8.81333861 C42.2921036,8.35794877 42.2921036,7.61976242 41.8361253,7.16378949 Z" id="Fill-1"></path>
        </g>
    </g>
</svg>