<?xml version="1.0" encoding="UTF-8"?>
<svg width="53px" height="49px" viewBox="0 0 53 49" version="1.1" xmlns="http://www.w3.org/2000/svg" xmlns:xlink="http://www.w3.org/1999/xlink">
    <!-- Generator: Sketch 48.2 (47327) - http://www.bohemiancoding.com/sketch -->
    <title>Page 1</title>
    <desc>Created with Sketch.</desc>
    <defs></defs>
    <g id="HOME" stroke="none" stroke-width="1" fill="none" fill-rule="evenodd" transform="translate(-954.000000, -1987.000000)">
        <g id="Page-1" transform="translate(980.500000, 2012.000000) rotate(-15.000000) translate(-980.500000, -2012.000000) translate(954.000000, 1991.000000)" fill="#FFFFFF">
            <path d="M50.5943191,20.0732279 C50.5943191,22.4487163 48.7094682,24.3744226 46.3843776,24.3744226 L45.6025313,24.3744226 L45.6025313,15.2190224 L46.3843776,15.2190224 C48.7094682,15.2190224 50.5943191,17.1447287 50.5943191,19.5202171 L50.5943191,20.0732279 Z M43.1968505,36.2948766 L25.394812,26.0949005 L25.394812,13.4985445 L43.1968505,3.29856841 L43.1968505,36.2948766 Z M22.9891312,25.5418897 L9.93831248,25.5418897 C8.94175918,25.5418897 8.13405183,24.7166748 8.13405183,23.6985206 L8.13405183,15.8949244 C8.13405183,14.8767702 8.94175918,14.0515552 9.93831248,14.0515552 L22.9891312,14.0515552 L22.9891312,25.5418897 Z M18.5386216,37.4008981 C18.3185018,38.8768223 16.9695162,39.8912898 15.5243034,39.6670132 C14.3791994,39.4894353 13.4806776,38.570823 13.3062657,37.4008981 L13.3062657,27.9997153 L18.5386216,27.9997153 L18.5386216,37.4008981 Z M1.87928157,19.7659997 C1.91175826,18.5346291 2.89868884,17.5533422 4.10453637,17.5539567 L5.72837096,17.5539564 L5.72837096,22.0394883 L4.10453637,22.0394883 C2.87583487,22.0394883 1.87928157,21.0213341 1.87928157,19.7659997 Z M53,19.5202171 C53,15.7873945 50.0380054,12.7611968 46.3843776,12.7611968 L45.6025313,12.7611968 L45.6025313,1.20941668 C45.5923072,0.530442371 45.0444134,-0.0108937087 44.3804455,0.000166506275 C44.1759626,0.00323878823 43.9756896,0.0603832325 43.7982707,0.164840819 L23.7709775,11.5937297 L9.93831248,11.5937297 C7.90972208,11.5869707 6.16500204,13.0592082 5.78851298,15.0961311 L4.10453637,15.0961311 C1.56353596,15.393528 -0.260571561,17.738908 0.0305158239,20.3349863 C0.275293852,22.5218366 1.96408182,24.2466157 4.10453637,24.4973139 L5.78851298,24.4973139 C6.16500204,26.5336223 7.90972208,28.0058599 9.93831248,27.9997153 L10.8404428,27.9997153 L10.8404428,37.4008981 C11.14416,40.2341565 13.6394525,42.2796818 16.4126011,41.9687669 C18.7671613,41.7057795 20.6261511,39.8064948 20.8841604,37.4008981 L20.8841604,27.9997153 L23.6506934,27.9997153 L43.7982707,39.4900498 L44.3996909,39.6743867 L45.0011111,39.4900498 C45.367376,39.2743756 45.5953143,38.8774368 45.6025313,38.4454739 L45.6025313,26.8322482 L46.3843776,26.8322482 C50.0380054,26.8322482 53,23.8060504 53,20.0732279 L53,19.5202171 Z" id="Fill-1"></path>
        </g>
    </g>
</svg>